<?xml version="1.0" encoding="UTF-8"?>
<svg width="50px" height="50px" viewBox="0 0 50 50" version="1.1"
    xmlns="http://www.w3.org/2000/svg"
    xmlns:xlink="http://www.w3.org/1999/xlink">
    <title>eso_icon</title>
    <g stroke="none" stroke-width="1" fill="none" fill-rule="evenodd">
        <g transform="translate(-180.000000, -40.000000)" fill-rule="nonzero">
            <g transform="translate(130.000000, 20.000000)">
                <g transform="translate(50.000000, 20.000000)">
                    <polygon fill="#231F20" points="39.2671746 17.1874574 42.1875 17.1874574 42.1875 10.1561983 39.2671746 10.1561983"></polygon>
                    <polygon fill="#AA0C0E" points="38.7695312 17.1874574 39.8539694 17.1874574 39.8539694 10.1561983 38.7695312 10.1561983"></polygon>
                    <polygon fill="#3E261B" points="21.6796875 31.2499756 34.375 31.2499756 34.375 26.4648132 21.6796875 26.4648132"></polygon>
                    <polygon fill="#783E23" points="15.625 14.0624533 17.1875 4.68744115 39.0625 4.68744115 39.0625 26.5624696 21.875 26.5624696 21.875 31.2499756 15.625 31.2499756"></polygon>
                    <polygon fill="#1C1A1A" points="21.875 26.5624696 39.0625 26.5624696 39.0625 22.3632454 21.875 22.3632454"></polygon>
                    <polygon fill="#261E1D" points="18.5546875 4.68744115 39.0625 4.68744115 39.0625 9.37494724 21.875 9.37494724 21.875 15.6249554 18.5546875 15.6249554"></polygon>
                    <path d="M9.375,31.2499756 L9.375,37.4999838 C3.125,37.4999838 0,37.4999838 0,37.4999838 C0,37.4999838 0,41.6666559 0,50 L50,50 L50,37.4999838 L40.625,37.4999838 L40.625,31.2499756 L9.375,31.2499756 Z" fill="#231F20"></path>
                    <polygon fill="#F1EEDD" points="15.625 50 34.375 50 34.375 31.2499756 15.625 31.2499756"></polygon>
                    <polyline fill="#6D3E3E" points="21.1911416 38.7254616 25.0070214 40.3651542 25.0070214 44.1928589 21.1871975 42.3181722"></polyline>
                    <polyline fill="#F1DDDD" points="28.9040174 38.706175 25.006627 40.365615 21.1914045 38.7252641 25.006627 37.0460768"></polyline>
                    <polygon fill="#D59A9A" points="28.9040174 42.2012018 25.006627 44.1923981 25.006627 40.3653517 28.9040174 38.7059117"></polygon>
                    <polygon fill="#231F20" points="15.625 0 15.625 11.132762 19.53125 11.132762 19.53125 3.12493912 34.375 3.12493912 34.375 4.68841772 37.5 4.68841772 37.5 0"></polygon>
                    <polygon fill="#A7A5A6" points="15.625 7.81244521 19.53125 7.81244521 19.53125 5.46869217 15.625 5.46869217"></polygon>
                    <polygon fill="#AA0C0E" points="17.1875 16.2108936 17.1875 21.5506773 17.96875 21.5506773 17.96875 42.1874899 17.1875 42.1874899 17.1875 50 17.96875 50 17.96875 42.9687409 18.7582351 42.9687409 18.7582351 20.6980788 17.96875 20.6980788 17.96875 16.2108936"></polygon>
                    <polygon fill="#231F20" points="14.0625 17.1874574 21.1019934 17.1874574 21.1019934 10.1561983 14.0625 10.1561983"></polygon>
                    <polygon fill="#AA0C0E" points="17.1875 17.1874574 18.75 17.1874574 18.75 10.1561983 17.1875 10.1561983"></polygon>
                </g>
            </g>
        </g>
    </g>
</svg>